<?xml version="1.0" standalone="no"?>
<!DOCTYPE svg PUBLIC "-//W3C//DTD SVG 20010904//EN"
 "http://www.w3.org/TR/2001/REC-SVG-20010904/DTD/svg10.dtd">
<svg version="1.0" xmlns="http://www.w3.org/2000/svg"
 width="200.000000pt" height="200.000000pt" viewBox="0 0 200.000000 200.000000"
 preserveAspectRatio="xMidYMid meet">

<g transform="translate(0.000000,200.000000) scale(0.100000,-0.100000)"
fill="#000000" stroke="none">
<path d="M560 1751 l0 -191 -194 0 c-184 0 -195 -1 -226 -22 -18 -13 -43 -36
-54 -51 -21 -28 -21 -39 -24 -504 -4 -652 -35 -603 380 -603 151 0 277 -3 281
-6 3 -4 -7 -33 -24 -65 l-29 -59 -294 0 c-325 0 -324 0 -311 -62 10 -49 31
-75 78 -100 l42 -23 815 0 815 0 41 22 c46 25 68 53 79 101 13 62 14 62 -311
62 l-294 0 -30 59 -29 59 277 4 c264 3 279 4 312 25 19 12 44 37 55 55 19 32
20 51 20 520 0 478 0 487 -21 515 -11 15 -36 38 -54 51 -31 21 -42 22 -226 22
l-194 0 0 191 0 190 -32 -3 -33 -3 -3 -353 c-1 -226 1 -360 8 -372 8 -15 23
-20 68 -22 l57 -3 -253 -152 -252 -152 -253 152 -252 152 57 3 c45 2 60 7 68
22 7 12 9 146 8 372 l-3 353 -32 3 -33 3 0 -190z m0 -281 l0 -30 -169 0 c-93
0 -176 -3 -185 -6 -14 -5 -16 -53 -16 -434 0 -381 2 -429 16 -434 20 -8 1568
-8 1588 0 14 5 16 53 16 434 0 381 -2 429 -16 434 -9 3 -92 6 -185 6 l-169 0
0 30 0 30 184 0 c184 0 185 0 215 -26 l31 -26 0 -479 0 -480 -25 -24 -24 -25
-821 0 -821 0 -24 25 -25 24 0 480 0 479 31 26 c30 26 31 26 215 26 l184 0 0
-30z m0 -160 l0 -60 -99 0 c-101 0 -129 -10 -116 -41 3 -8 152 -101 330 -208
l325 -194 318 191 c175 105 325 198 332 207 10 12 10 18 0 30 -10 11 -36 15
-111 15 l-99 0 0 60 0 60 155 0 155 0 0 -370 0 -370 -750 0 -750 0 0 370 0
370 155 0 155 0 0 -60z m670 -1000 l30 -60 -260 0 -260 0 30 60 30 60 200 0
200 0 30 -60z m640 -128 c0 -5 -9 -17 -21 -28 -20 -18 -49 -19 -849 -19 -800
0 -829 1 -849 19 -12 11 -21 23 -21 28 0 4 392 8 870 8 479 0 870 -4 870 -8z"/>
<path d="M1567 874 c-4 -4 -7 -20 -7 -36 0 -24 -4 -28 -30 -28 -27 0 -30 -3
-30 -30 0 -27 3 -30 30 -30 27 0 30 -3 30 -30 0 -28 3 -30 35 -30 32 0 35 2
35 30 0 27 3 30 30 30 27 0 30 3 30 30 0 27 -3 30 -29 30 -26 0 -30 4 -33 33
-2 26 -8 33 -28 35 -14 2 -29 0 -33 -4z"/>
<path d="M885 1847 c-51 -29 -81 -74 -95 -144 -16 -73 -6 -130 31 -188 16 -26
29 -48 27 -49 -101 -45 -128 -86 -128 -198 l0 -78 30 0 30 0 0 65 c0 130 35
155 220 155 185 0 220 -25 220 -155 l0 -65 30 0 30 0 0 78 c0 112 -27 153
-128 198 -2 1 11 23 27 49 37 58 47 115 31 188 -24 116 -88 167 -210 167 -59
0 -83 -5 -115 -23z m203 -57 c30 -19 70 -85 58 -97 -3 -3 -28 9 -56 26 -61 37
-77 39 -92 6 -12 -27 -54 -50 -110 -60 -34 -7 -38 -5 -38 14 0 77 62 131 150
131 38 0 65 -6 88 -20z m15 -150 c26 -17 47 -35 47 -41 0 -45 -98 -129 -150
-129 -35 0 -106 46 -129 84 -26 42 -26 46 2 46 38 0 93 19 128 44 19 13 39 25
44 25 6 0 31 -13 58 -29z"/>
</g>
</svg>
